<svg height="512pt" viewBox="0 0 512 511" width="512pt" xmlns="http://www.w3.org/2000/svg"><path d="m512 286.5c0 29.097656-69.101562 30-98.199219 30l-37.800781-.300781c-11.398438 0-21.597656-6-26.699219-16.199219l-33.300781-51.300781v203.800781h-120v-203.800781l-33.300781 51.300781c-5.101563 10.5-15.601563 16.5-26.699219 16.5h-31.800781c-29.398438 0-104.199219-.601562-104.199219-30 0-14.699219 30.398438-29.398438 93.402344-30h24c39.898437-80.699219 49.796875-105 138.597656-105s98.699219 24 138.601562 105h24c63 .601562 93.398438 15.300781 93.398438 30zm0 0" fill="#52dddc"/><path d="m512 286.5c0 29.097656-69.101562 30-98.199219 30l-37.800781-.300781c-11.398438 0-21.597656-6-26.699219-16.199219l-33.300781-51.300781v203.800781h-60v-301c88.800781 0 98.699219 24 138.601562 105h24c63 .601562 93.398438 15.300781 93.398438 30zm0 0" fill="#37a9bf"/><path d="m450.699219 504.699219c-4.199219 15.601562-94.5 6.898437-194.699219-18.597657-3.601562-.902343-6.898438-1.800781-10.199219-2.699218-104.101562-27.902344-189-67.203125-184.5-83.101563 4.199219-15.902343 92.699219-3.601562 194.699219 23.398438 1.800781.601562 3.601562.902343 5.398438 1.5 103.800781 27.902343 193.800781 63.601562 189.300781 79.5zm0 0" fill="#596c76"/><path d="m450.699219 504.699219c-4.199219 15.601562-94.5 6.898437-194.699219-18.597657v-62.402343c1.800781.601562 3.601562.902343 5.398438 1.5 103.800781 27.902343 193.800781 63.601562 189.300781 79.5zm0 0" fill="#3b4a51"/><path d="m256 .5c-41.398438 0-75 34.601562-75 76s33.601562 75 75 75 75-33.601562 75-75-33.601562-76-75-76zm0 0" fill="#fde4e4"/><path d="m256 151.5v-151c41.398438 0 75 34.601562 75 76s-33.601562 75-75 75zm0 0" fill="#fcced3"/><path d="m450.699219 400.300781c4.5 15.898438-80.398438 55.199219-184.5 83.101563-3.300781.898437-6.597657 1.800781-10.199219 2.699218-100.199219 25.5-190.5 34.199219-195 18.597657-4.199219-15.898438 85.800781-51.597657 189.601562-79.496094 1.796876-.601563 3.597657-.902344 5.398438-1.503906 102-27 190.5-39.300781 194.699219-23.398438zm0 0" fill="#7a8c98"/><path d="m450.699219 400.300781c4.5 15.898438-80.398438 55.199219-184.5 83.101563-3.300781.898437-6.597657 1.800781-10.199219 2.699218v-62.402343c102-27 190.5-39.300781 194.699219-23.398438zm0 0" fill="#596c76"/></svg>