<svg height="512pt" viewBox="0 0 512 512" width="512pt" xmlns="http://www.w3.org/2000/svg"><path d="m512 120v392h-512v-392l30-30h452zm0 0" fill="#e0f4ff"/><path d="m512 120v392h-256v-422h226zm0 0" fill="#bbdcff"/><path d="m0 0h512v120h-512zm0 0" fill="#61729b"/><path d="m256 0h256v120h-256zm0 0" fill="#47568c"/><g fill="#64e1dc"><path d="m61 45h30v30h-30zm0 0"/><path d="m121 45h30v30h-30zm0 0"/><path d="m181 45h30v30h-30zm0 0"/></g><path d="m361 45h90v30h-90zm0 0" fill="#00c8c8"/><path d="m241 301h-180v-120h180zm0 0" fill="#64e1dc"/><path d="m61 361h90v30h-90zm0 0" fill="#bbdcff"/><path d="m61 421h90v30h-90zm0 0" fill="#bbdcff"/><path d="m361 421h90v30h-90zm0 0" fill="#9abadb"/><path d="m361 361h90v30h-90zm0 0" fill="#9abadb"/><path d="m408.574219 226.441406h-42.425781l-169.707032 169.707032-42.425781 84.851562 84.851563-42.425781 169.707031-169.707031zm0 0" fill="#ff641a"/><path d="m408.574219 268.867188v-42.425782l-254.558594 254.558594 84.851563-42.425781zm0 0" fill="#f03800"/><path d="m429.785156 205.226562-21.210937-21.210937-42.425781 42.425781 21.210937 21.214844 21.214844 21.210938 42.425781-42.425782zm0 0" fill="#61729b"/><path d="m429.785156 205.222656 21.214844 21.214844-42.425781 42.425781-21.214844-21.214843zm0 0" fill="#47568c"/></svg>